<?xml version="1.0" encoding="utf-8"?>
<!-- Generator: Adobe Illustrator 16.0.0, SVG Export Plug-In . SVG Version: 6.00 Build 0)  -->
<!DOCTYPE svg PUBLIC "-//W3C//DTD SVG 1.1//EN" "http://www.w3.org/Graphics/SVG/1.1/DTD/svg11.dtd">
<svg version="1.1" id="Layer_1" xmlns="http://www.w3.org/2000/svg" xmlns:xlink="http://www.w3.org/1999/xlink" x="0px" y="0px"
	 width="1024px" height="1024px" viewBox="0 0 1024 1024" enable-background="new 0 0 1024 1024" xml:space="preserve">
<g>
	<defs>
		<path id="SVGID_1_" d="M1024,512c0,282.75-229.25,512-512,512S0,794.75,0,512S229.25,0,512,0S1024,229.25,1024,512z"/>
	</defs>
	<clipPath id="SVGID_2_">
		<use xlink:href="#SVGID_1_"  overflow="visible"/>
	</clipPath>
	<g clip-path="url(#SVGID_2_)">
		<path d="M801.449,131.168c0,0-181.639,38.151-289.45-45.964c-107.812,84.115-289.446,45.964-289.446,45.964
			c-52.737,74.998-47.787,251.952-47.787,251.952c0,339.254,337.233,555.677,337.233,555.677S849.234,722.374,849.234,383.12
			C849.234,383.12,854.185,206.166,801.449,131.168 M511.999,875.302c0,0-292.965-173.438-292.965-493.357
			c0,0,4.688-110.155,38.674-196.873c0,0,127.731,38.674,254.291-39.843c126.563,78.517,254.291,39.843,254.291,39.843
			c33.984,86.717,38.677,196.873,38.677,196.873C804.967,701.863,511.999,875.302,511.999,875.302"/>
		<polygon points="511.999,261.635 379.581,344.447 437.393,382.73 480.358,356.165 480.358,407.727 542.858,446.007 
			542.858,353.821 587.389,383.511 649.107,345.229 		"/>
		<polygon points="482.702,524.911 482.702,602.256 541.296,636.632 541.296,561.638 		"/>
		<path d="M634.266,410.852l-28.126-18.75l56.243-38.276l34.385,19.526v224.996l-27.351,17.976c0,0-15.234-1.171-20.31-6.258
			c-5.079-5.071-257.812-160.933-257.812-160.933V560.07l182.031,111.721l-61.327,39.843l-183.98-113.287V374.134l33.593-20.309
			l271.871,166.403L634.266,410.852z"/>
	</g>
</g>
</svg>
